<svg viewBox="0 0 512 512" xmlns="http://www.w3.org/2000/svg"><path d="m318.121094 197.886719v-49.097657h-34.066406v-122.1875c-8.734376-3.265624-18.183594-5.058593-28.054688-5.058593-44.269531 0-80.15625 35.886719-80.15625 80.15625v160.3125c0 44.269531 35.886719 80.15625 80.15625 80.15625s80.15625-35.886719 80.15625-80.15625v-75.457031zm0 0" fill="#77959e"/><path d="m336.15625 504.484375h-160.3125v-20.039063c0-11.066406 8.972656-20.039062 20.039062-20.039062h120.234376c11.066406 0 20.039062 8.972656 20.039062 20.039062zm0 0" fill="#77959e"/><path d="m256 372.226562c-6.84375 0-13.539062-.628906-20.039062-1.820312v94h40.078124v-94c-6.5 1.191406-13.195312 1.820312-20.039062 1.820312zm0 0" fill="#b0b4b9"/><path d="m115.726562 207.90625h30.058594v40.078125h-30.058594zm0 0" fill="#b0b4b9"/><path d="m366.214844 207.90625h30.058594v40.078125h-30.058594zm0 0" fill="#b0b4b9"/><path d="m231.953125 136.765625h-56.109375v-30.058594h56.109375c8.300781 0 15.027344 6.730469 15.027344 15.03125s-6.726563 15.027344-15.027344 15.027344zm0 0" fill="#d7dee2"/><path d="m231.953125 196.882812h-56.109375v-30.058593h56.109375c8.300781 0 15.027344 6.730469 15.027344 15.03125s-6.726563 15.027343-15.027344 15.027343zm0 0" fill="#d7dee2"/><path d="m231.953125 257.003906h-56.109375v-30.0625h56.109375c8.300781 0 15.027344 6.730469 15.027344 15.03125 0 8.300782-6.726563 15.03125-15.027344 15.03125zm0 0" fill="#d7dee2"/><path d="m284.054688 148.789062h34.066406v49.097657l78.152344-49.097657h108.210937v-141.273437h-220.429687zm0 0" fill="#addb31"/><path d="m142.777344 137.769531h-21.039063v31.058594l-50.097656-31.058594h-64.125v-90.175781h135.261719zm0 0" fill="#ffcb5a"/><path d="m152.796875 370.222656h-21.039063v-31.058594l-50.097656 31.058594h-43.085937v68.132813h114.222656zm0 0" fill="#ff668b"/><path d="m373.230469 395.273438h21.039062v-31.0625l50.097657 31.0625h43.085937v79.152343h-114.222656zm0 0" fill="#00ddc2"/><path d="m235.960938 444.367188h40.078124v20.039062h-40.078124zm0 0" fill="#9da2a5"/><path d="m175.84375 484.445312h160.3125v20.039063h-160.3125zm0 0" fill="#62808c"/><path d="m256 322.128906c-39.128906 0-71.691406-28.042968-78.730469-65.125h-1.425781v5.007813c0 44.269531 35.886719 80.15625 80.15625 80.15625s80.15625-35.886719 80.15625-80.15625v-20.039063c0 44.269532-35.886719 80.15625-80.15625 80.15625zm0 0" fill="#62808c"/><path d="m316.117188 456.890625h-32.5625v-80.414063c51.667968-12.4375 90.175781-59.035156 90.175781-114.464843v-6.511719h30.058593v-55.109375h-45.089843v61.621094c0 50.347656-36.417969 92.347656-84.292969 101.046875-1.332031.238281-2.671875.453125-4.015625.640625-.191406.027343-.386719.054687-.578125.082031-1.433594.191406-2.871094.355469-4.3125.488281-.078125.007813-.15625.011719-.234375.019531-6.15625.550782-12.375.550782-18.53125 0-.078125-.007812-.15625-.011718-.234375-.019531-1.441406-.132812-2.878906-.296875-4.3125-.488281-.191406-.027344-.382812-.054688-.578125-.082031-1.34375-.1875-2.683594-.402344-4.019531-.640625-47.875-8.703125-84.289063-50.699219-84.289063-101.046875v-61.621094h-45.089843v55.109375h30.058593v6.511719c0 55.429687 38.507813 102.027343 90.175781 114.464843v80.414063h-32.5625c-15.195312 0-27.554687 12.363281-27.554687 27.554687v27.554688h175.34375v-27.554688c0-15.191406-12.363281-27.554687-27.554687-27.554687zm57.613281-241.46875h15.027343v25.046875h-15.027343zm-235.460938 25.046875h-15.027343v-25.046875h15.027343zm105.207031 138.609375c.042969.003906.085938.007813.132813.011719.871094.089844 1.746094.171875 2.625.242187.140625.011719.28125.027344.421875.039063 1.003906.078125 2.007812.144531 3.015625.199218.019531 0 .042969.003907.0625.003907 2.078125.109375 4.164063.167969 6.265625.167969s4.191406-.058594 6.265625-.167969c.023437 0 .042969-.003907.0625-.003907 1.011719-.054687 2.015625-.121093 3.015625-.199218.140625-.011719.28125-.027344.421875-.039063.878906-.070312 1.753906-.152343 2.628906-.242187.042969-.003906.085938-.007813.132813-.011719v77.8125h-25.050782zm85.164063 117.890625h-145.28125v-12.523438c0-6.90625 5.617187-12.523437 12.523437-12.523437h120.234376c6.90625 0 12.523437 5.617187 12.523437 12.523437zm0 0"/><path d="m276.539062 0v156.304688h34.066407v55.175781l87.832031-55.175781h113.5625v-156.304688zm220.429688 141.277344h-102.859375l-68.472656 43.011718v-43.011718h-34.066407v-126.246094h205.398438zm0 0"/><path d="m129.253906 182.332031v-37.046875h21.039063v-105.207031h-150.292969v105.207031h69.5zm-114.222656-127.222656h120.234375v75.144531h-21.042969v25.074219l-40.441406-25.074219h-58.75zm0 0"/><path d="m139.273438 325.660156-59.753907 37.046875h-48.457031v83.164063h129.25v-83.164063h-21.039062zm6.011718 52.078125v53.101563h-99.195312v-53.101563h37.710937l40.441407-25.074219v25.074219zm0 0"/><path d="m386.753906 350.710938v37.046874h-21.039062v94.183594h129.25v-94.183594h-48.457032zm93.183594 116.199218h-99.195312v-64.125h21.042968v-25.074218l40.441406 25.074218h37.710938zm0 0"/><path d="m256 349.683594c48.34375 0 87.671875-39.328125 87.671875-87.671875v-45.875h-15.03125v45.875c0 40.054687-32.585937 72.640625-72.640625 72.640625-39.214844 0-71.25-31.238282-72.578125-70.136719h48.53125c12.429687 0 22.542969-10.113281 22.542969-22.542969 0-12.429687-10.113282-22.542968-22.542969-22.542968h-48.59375v-15.03125h48.59375c12.429687 0 22.542969-10.113282 22.542969-22.542969 0-12.429688-10.113282-22.542969-22.542969-22.542969h-48.59375v-15.03125h48.59375c12.429687 0 22.542969-10.113281 22.542969-22.542969 0-12.433593-10.113282-22.542969-22.542969-22.542969h-48.53125c1.328125-38.898437 33.363281-70.136718 72.578125-70.136718.914062 0 1.824219.027344 2.730469.0625l.550781-15.019532c-1.089844-.042968-2.179688-.074218-3.28125-.074218-48.34375 0-87.671875 39.328125-87.671875 87.671875v160.3125c0 48.34375 39.328125 87.671875 87.671875 87.671875zm-72.640625-235.460938h48.59375c4.144531 0 7.515625 3.371094 7.515625 7.515625s-3.371094 7.515625-7.515625 7.515625h-48.59375zm0 60.117188h48.59375c4.144531 0 7.515625 3.371094 7.515625 7.515625s-3.371094 7.515625-7.515625 7.515625h-48.59375zm0 60.117187h48.59375c4.144531 0 7.515625 3.371094 7.515625 7.515625 0 4.144532-3.371094 7.515625-7.515625 7.515625h-48.59375zm0 0"/><g fill="#fff"><path d="m469.417969 56.109375h-60.117188v-15.027344h60.117188zm-75.148438 0h-15.027343v-15.027344h15.027343zm-30.058593 0h-45.085938v-15.027344h45.085938zm0 0"/><path d="m469.417969 86.167969h-20.039063v-15.027344h20.039063zm-35.070313 0h-40.078125v-15.027344h40.078125zm-55.105468 0h-60.117188v-15.027344h60.117188zm0 0"/><path d="m429.339844 116.226562h-70.136719v-15.027343h70.136719zm-85.167969 0h-25.046875v-15.027343h25.046875zm0 0"/><path d="m115.226562 85.167969h-40.078124v-15.03125h40.078124zm-55.109374 0h-25.046876v-15.03125h25.046876zm0 0"/><path d="m115.226562 116.226562h-15.03125v-15.027343h15.03125zm-30.058593 0h-50.097657v-15.027343h50.097657zm0 0"/><path d="m125.746094 411.804688h-15.03125v-15.03125h15.03125zm-30.058594 0h-30.058594v-15.03125h30.058594zm0 0"/><path d="m460.398438 442.363281h-15.027344v-15.027343h15.027344zm-30.058594 0h-30.058594v-15.027343h30.058594zm0 0"/></g></svg>